<?xml version="1.0" encoding="UTF-8"?>
<svg baseProfile="tiny" version="1.1" viewBox="0 0 277.8 313.61" xml:space="preserve" xmlns="http://www.w3.org/2000/svg">
		<g transform="translate(0 -1)">
			<path d="m243.7 73.3l-79.2-45.8c-6.9-3.9-16-6.2-25.2-6.2s-18.3 2.3-25.2 6.2l-79.6 45.8c-14.91 9.64-24.29 25.86-25.2 43.6v92c0.71 17.8 10.14 34.1 25.2 43.6l79.6 45.8c6.9 3.9 16 6.2 25.2 6.2s18.3-2.3 25.2-6.2l79.6-45.8c14.91-9.64 24.29-25.86 25.2-43.6v-92c-0.66-17.91-10.28-34.3-25.6-43.6z" fill="#fff"/>
            <path d="m139 33.5c-4.57-0.09-9.09 0.91-13.2 2.9l-89.8 52c-7.49 5.37-12.31 13.72-13.2 22.9v103.8c0 7.9 6.4 19.2 13.2 22.9l89.8 51.9c3 1.9 8.3 2.9 13.2 2.9 5.1 0 10.1-1.1 13.4-2.9l89.8-52c7.49-5.37 12.31-13.72 13.2-22.9v-103.6c0-7.9-6.4-19.2-13.2-22.9l-89.8-51.9c-4.14-2.13-8.75-3.2-13.4-3.1z" fill="#D2E4E7"/>
            <path d="m254.3 68.3c-0.4 0.8-0.9 1.6-1.6 2.4-3.1 3.4-7 5.5-10.9 7.9l3.8 2.2c9.91 6.7 16.21 17.57 17.1 29.5v103.7c0 10.4-8 24.2-17.1 29.5l-89.7 51.7c-4.4 2.6-10.6 4-17.1 4s-12.7-1.3-17.1-4l-89.5-51.6c-9.96-6.67-16.31-17.55-17.2-29.5v-103.7c0-10.4 8-24.2 17.1-29.5l89.7-51.7c4.4-2.6 10.6-4 17.1-4s12.7 1.3 17.1 4l22.6 13c-0.2-3.4-0.1-6.8-0.2-10.3-0.1-2.7 1-4.7 2.6-5.8l-17.1-10c-7.6-4.02-16.1-6.05-24.7-5.9-9.2 0-18 2.1-24.6 5.9l-90 51.7c-14.62 9.47-23.78 25.4-24.6 42.8v103.7c0.88 17.35 10.03 33.23 24.6 42.7l89.7 51.7c7.57 4.02 16.03 6.05 24.6 5.9 9.2 0 18-2.1 24.6-5.9l89.7-51.7c14.63-9.41 23.8-25.32 24.6-42.7v-103.9c-0.74-16.96-9.45-32.57-23.5-42.1z" fill="#375767"/>
            <path d="m107.2 145.9h107v-27.3h-106.7c-12.91-0.35-25.37 4.77-34.3 14.1-21.1 22.6-18.1 65-18.1 66.8l1 12.6h157v-41.8h-27.4v14.6h-103c0.6-9 2.8-24.9 10.7-33.2 3.4-4 7.8-5.8 13.8-5.8z" fill="#375767"/>
            <path d="m253.1 19.4l-27.9-16.2c-2.73-1.48-5.79-2.23-8.9-2.2-3.2 0-6.5 0.8-8.9 2.2l-28 16.2c-5 3-8.9 9.6-8.9 15.3v32.4c0 5.8 3.8 12.5 8.9 15.3l28 16.2c2.4 1.4 5.7 2.2 8.9 2.2s6.5-0.8 8.9-2.2l28-16.2c5-3 8.9-9.6 8.9-15.3v-32.4c0-5.9-3.8-12.5-9-15.3z" fill="#375767"/>
            <path d="m245.4 25.9l-22.1-12.8c-2.15-1.15-4.56-1.73-7-1.7-2.6 0-5.1 0.6-7 1.7l-22.2 12.8c-3.9 2.4-7 7.6-7 12.1v25.7c0 4.6 3 9.9 7 12.1l22.2 12.8c1.9 1.1 4.5 1.7 7 1.7 2.6 0 5.1-0.6 7-1.7l22.2-12.8c3.9-2.4 7-7.6 7-12.1v-25.7c0.1-4.6-3-9.8-7.1-12.1z" fill="#D2E4E7"/>
            <path d="m199.9 64.1c-0.1 1.2-0.9 1.8-2.1 1.8h-4.4c-1.2 0-1.7-0.6-1.6-1.8l3-19.3c0.9-5.6 3.8-9 10.4-9h35c1.2 0 1.7 0.6 1.6 1.8l-0.6 3.5c-0.1 1.2-0.9 1.8-2.1 1.8h-32.9c-2.1 0-3.3 1.1-3.7 3.1l-0.2 2h31.7c1.2 0 1.7 0.6 1.5 1.8l-0.6 3.5c-0.1 1.2-0.9 1.8-2.1 1.8h-31.7l-1.2 9z" fill="#375767"/>
		</g>
</svg>
